999
"DXF R12 Output" (www.mydxf.blogspot.com)
 0 
SECTION
 2 
HEADER
 9 
$ACADVER
 1 
AC1009
 9 
$EXTMIN
 10 
 0 
 20 
 0 
 9 
$EXTMAX
 10 
 8.5 
 20 
 11 
 0 
ENDSEC
 0 
SECTION
 2 
ENTITIES
0
LINE
8
Walls
10
141.962000
20
153.231000
11
141.962000
21
136.565000
0
LINE
8
Walls
10
141.962000
20
136.565000
11
151.314000
21
136.565000
0
LINE
8
Walls
10
151.314000
20
136.565000
11
151.314000
21
16.796800
0
LINE
8
Walls
10
151.314000
20
16.796800
11
141.886000
21
16.796800
0
LINE
8
Walls
10
141.886000
20
16.796800
11
141.886000
21
0.740577
0
LINE
8
Walls
10
141.886000
20
0.740577
11
10.971900
21
0.740577
0
LINE
8
Walls
10
10.971900
20
0.740577
11
10.971900
21
16.251500
0
LINE
8
Walls
10
10.971900
20
16.251500
11
0.944163
21
16.251500
0
LINE
8
Walls
10
0.944163
20
16.251500
11
0.944163
21
137.046000
0
LINE
8
Walls
10
0.944163
20
137.046000
11
11.255900
21
137.046000
0
LINE
8
Walls
10
11.255900
20
137.046000
11
11.255811
21
153.231300
0
LINE
8
Walls
10
11.255811
20
153.231300
11
141.962000
21
153.231000
0
LINE
8
Walls
10
62.283900
20
123.310000
11
62.357243
21
154.202000
0
LINE
8
Walls
10
24.883700
20
123.590000
11
127.788000
21
123.590000
0
LINE
8
Walls
10
127.788000
20
123.590000
11
127.788000
21
62.976100
0
LINE
8
Walls
10
127.788000
20
62.976100
11
117.698000
21
62.976100
0
LINE
8
Walls
10
117.698000
20
62.976100
11
117.698000
21
31.457500
0
LINE
8
Walls
10
117.698000
20
31.457500
11
34.377300
21
31.457500
0
LINE
8
Walls
10
34.377300
20
31.457500
11
34.377300
21
62.806200
0
LINE
8
Walls
10
34.377300
20
62.806200
11
25.013300
21
62.806200
0
LINE
8
Walls
10
25.013300
20
62.806200
11
24.883700
21
123.590000
0
LINE
8
Walls
10
76.725800
20
123.447000
11
76.725800
21
153.920000
0
LINE
8
Walls
10
91.591900
20
123.551000
11
91.591900
21
154.195000
0
LINE
8
Walls
10
105.974000
20
123.426000
11
105.974000
21
154.183000
0
LINE
8
Walls
10
119.968000
20
123.498000
11
119.968000
21
153.985000
0
LINE
8
Walls
10
127.791000
20
123.614000
11
127.791000
21
131.056000
0
LINE
8
Walls
10
127.791000
20
131.056000
11
151.542000
21
131.056000
0
LINE
8
Walls
10
134.954000
20
130.814000
11
134.954000
21
154.005000
0
LINE
8
Walls
10
127.912000
20
93.854500
11
151.405000
21
93.854500
0
LINE
8
Walls
10
128.181000
20
62.975400
11
150.773000
21
62.975400
0
LINE
8
Walls
10
117.741000
20
50.259000
11
134.645825
21
50.301320
0
LINE
8
Walls
10
134.645825
20
50.301320
11
151.112100
21
50.259000
0
LINE
8
Walls
10
117.910000
20
36.749600
11
150.885200
21
36.749600
0
LINE
8
Walls
10
117.700000
20
31.543500
11
117.700000
21
24.014900
0
LINE
8
Walls
10
117.700000
20
24.014900
11
150.744000
21
24.014900
0
LINE
8
Walls
10
117.886000
20
24.036100
11
113.899350
21
24.036100
0
LINE
8
Walls
10
113.899350
20
24.036100
11
113.899350
21
1.893500
0
LINE
8
Walls
10
75.992900
20
31.587500
11
75.992900
21
0.841335
0
LINE
8
Walls
10
34.378100
20
31.367400
11
34.378100
21
22.786790
0
LINE
8
Walls
10
34.378100
20
22.786790
11
0.923938
21
22.786800
0
LINE
8
Walls
10
18.218500
20
22.675500
11
18.218500
21
2.014380
0
LINE
8
Walls
10
34.410600
20
36.306600
11
0.417714
21
36.306600
0
LINE
8
Walls
10
34.332200
20
49.473800
11
0.897883
21
49.473800
0
LINE
8
Walls
10
25.158300
20
62.807900
11
10.474700
21
62.807900
0
LINE
8
Walls
10
10.474700
20
62.807900
11
10.474700
21
49.591900
0
LINE
8
Walls
10
25.032100
20
94.058400
11
0.529700
21
94.058400
0
LINE
8
Walls
10
24.881800
20
123.437000
11
24.881800
21
131.387000
0
LINE
8
Walls
10
24.881800
20
131.387000
11
1.248970
21
131.387000
0
LINE
8
Walls
10
18.001500
20
131.373000
11
18.001500
21
153.907000
0
LINE
8
Walls
10
120.067000
20
76.722100
11
120.067000
21
116.958000
0
LINE
8
Walls
10
120.067000
20
116.958000
11
31.490900
21
116.958000
0
LINE
8
Walls
10
31.490900
20
116.958000
11
31.490900
21
76.509900
0
LINE
8
Walls
10
31.490900
20
76.509900
11
39.010200
21
76.509900
0
LINE
8
Walls
10
39.010200
20
76.509900
11
47.501500
21
76.509900
0
LINE
8
Walls
10
47.501500
20
76.509900
11
47.501500
21
79.290700
0
LINE
8
Walls
10
47.501500
20
79.290700
11
104.899000
21
79.290700
0
LINE
8
Walls
10
104.899000
20
79.290700
11
104.899000
21
76.587400
0
LINE
8
Walls
10
104.899000
20
76.587400
11
120.067000
21
76.722100
0
LINE
8
Walls
10
120.386000
20
101.977000
11
31.604800
21
101.977000
0
LINE
8
Walls
10
56.047800
20
116.817000
11
56.047800
21
102.198000
0
LINE
8
Walls
10
97.056700
20
117.102000
11
97.056700
21
102.307700
0
LINE
8
Walls
10
40.167500
20
36.470400
11
40.167500
21
69.700500
0
LINE
8
Walls
10
40.167500
20
69.700500
11
111.533000
21
69.700500
0
LINE
8
Walls
10
111.533000
20
69.700500
11
111.533000
21
36.522300
0
LINE
8
Walls
10
111.533000
20
36.522300
11
40.167500
21
36.470400
0
LINE
8
Walls
10
82.774600
20
36.477900
11
82.774600
21
69.689000
0
LINE
8
Walls
10
82.995500
20
55.269000
11
94.688500
21
55.269000
0
LINE
8
Walls
10
94.688500
20
55.269000
11
94.688500
21
69.451200
0
LINE
8
Walls
10
102.137000
20
36.550600
11
102.137000
21
47.425600
0
LINE
8
Walls
10
102.137000
20
47.425600
11
111.640000
21
47.425600
0
LINE
8
Walls
10
104.897000
20
79.670800
11
104.897000
21
85.025200
0
LINE
8
Walls
10
104.897000
20
85.025200
11
106.758000
21
85.025200
0
LINE
8
Walls
10
106.758000
20
85.025200
11
106.758000
21
101.793000
0
LINE
8
Walls
10
100.114000
20
79.425000
11
100.114000
21
90.034200
0
LINE
8
Walls
10
100.114000
20
90.034200
11
91.951900
21
90.034200
0
LINE
8
Walls
10
91.951900
20
90.034200
11
91.951900
21
101.801000
0
LINE
8
Walls
10
52.664000
20
79.542200
11
52.664000
21
90.035700
0
LINE
8
Walls
10
52.664000
20
90.035700
11
67.179100
21
90.035700
0
LINE
8
Walls
10
67.179100
20
90.035700
11
67.179100
21
102.177000
0
LINE
8
Walls
10
47.498900
20
79.181100
11
47.498900
21
84.577200
0
LINE
8
Walls
10
47.498900
20
84.577200
11
45.925000
21
84.577200
0
LINE
8
Walls
10
45.925000
20
84.577200
11
45.925000
21
101.834000
0
LINE
8
Walls
10
64.207700
20
79.293200
11
64.207700
21
89.676700
0
LINE
8
Walls
10
18.216200
20
3.266540
11
18.216200
21
0.000330
0
LINE
8
Walls
10
113.874000
20
1.112180
11
113.874000
21
4.183870
0
LINE
8
paths
10
28.056900
20
72.951800
11
124.354000
21
72.951800
0
LINE
8
paths
10
114.429000
20
65.993100
11
114.429000
21
73.317000
0
LINE
8
paths
10
37.003300
20
65.834200
11
37.003300
21
73.158100
0
LINE
8
paths
10
28.483400
20
120.343000
11
124.306000
21
120.343000
0
LINE
8
paths
10
124.306000
20
120.343000
11
124.306000
21
66.330300
0
LINE
8
paths
10
124.306000
20
66.330300
11
114.404000
21
66.330300
0
LINE
8
paths
10
114.404000
20
66.330300
11
114.404000
21
34.500800
0
LINE
8
paths
10
114.404000
20
34.500800
11
114.404000
21
33.968700
0
LINE
8
paths
10
114.404000
20
33.968700
11
37.016400
21
33.968700
0
LINE
8
paths
10
37.016400
20
33.968700
11
37.016400
21
66.613900
0
LINE
8
paths
10
37.016400
20
66.613900
11
27.973000
21
66.613900
0
LINE
8
paths
10
27.973000
20
66.613900
11
27.973000
21
120.347000
0
LINE
8
paths
10
27.973000
20
120.347000
11
28.483400
21
120.343000
0
LINE
8
paths
10
30.855600
20
123.428000
11
30.855600
21
120.604000
0
LINE
8
paths
10
51.784400
20
123.656000
11
51.784400
21
120.428000
0
LINE
8
paths
10
72.066100
20
123.116000
11
72.066100
21
120.153000
0
LINE
8
paths
10
76.076200
20
116.743000
11
76.076200
21
119.970000
0
LINE
8
paths
10
85.962500
20
123.429000
11
85.962500
21
120.238000
0
LINE
8
paths
10
101.566000
20
123.346000
11
101.566000
21
120.478000
0
LINE
8
paths
10
114.808000
20
123.307000
11
114.808000
21
120.223000
0
LINE
8
paths
10
124.518000
20
123.525000
11
124.518000
21
120.076000
0
LINE
8
paths
10
82.414300
20
76.367600
11
82.414300
21
73.127000
0
LINE
8
paths
10
58.872300
20
79.047900
11
58.872300
21
72.792700
0
LINE
8
paths
10
50.145900
20
79.167400
11
50.145900
21
72.710800
0
LINE
8
paths
10
41.207900
20
76.343800
11
41.207900
21
72.585400
0
LINE
8
paths
10
102.776000
20
72.653000
11
102.776000
21
79.031600
0
LINE
8
paths
10
109.996000
20
76.410400
11
109.996000
21
72.822400
0
LINE
8
paths
10
31.695600
20
108.624000
11
28.059100
21
108.624000
0
LINE
8
paths
10
28.084900
20
98.026400
11
24.923800
21
98.026400
0
LINE
8
paths
10
124.365000
20
109.047000
11
120.136000
21
109.047000
0
LINE
8
paths
10
124.073000
20
97.919600
11
127.958000
21
97.919600
0
LINE
8
paths
10
124.320000
20
66.483100
11
128.157000
21
66.483100
0
LINE
8
paths
10
37.020400
20
45.625800
11
34.266600
21
45.625800
0
LINE
8
paths
10
47.405500
20
33.812700
11
47.405500
21
36.361800
0
LINE
8
paths
10
41.998200
20
33.759300
11
41.998200
21
30.904000
0
LINE
8
paths
10
37.160000
20
33.829100
11
34.511500
21
33.829100
0
LINE
8
paths
10
109.336000
20
33.695200
11
109.336000
21
31.232200
0
LINE
8
paths
10
117.776000
20
34.002100
11
114.302000
21
34.002100
0
LINE
8
paths
10
114.583000
20
43.376400
11
111.729000
21
43.376400
0
LINE
8
paths
10
118.013000
20
46.127900
11
114.749000
21
46.127900
0
LINE
8
dots(not in use)
10
115.512000
20
46.198800
11
115.437166
21
45.828132
0
LINE
8
dots(not in use)
10
115.437166
20
45.828132
11
115.233087
21
45.525440
0
LINE
8
dots(not in use)
10
115.233087
20
45.525440
11
114.930396
21
45.321359
0
LINE
8
dots(not in use)
10
114.930396
20
45.321359
11
114.559728
21
45.246523
0
LINE
8
dots(not in use)
10
114.559728
20
45.246523
11
113.886361
21
45.525435
0
LINE
8
dots(not in use)
10
113.886361
20
45.525435
11
113.607443
21
46.198800
0
LINE
8
dots(not in use)
10
113.607443
20
46.198800
11
113.886361
21
46.872165
0
LINE
8
dots(not in use)
10
113.886361
20
46.872165
11
114.559728
21
47.151077
0
LINE
8
dots(not in use)
10
114.559728
20
47.151077
11
114.930396
21
47.076241
0
LINE
8
dots(not in use)
10
114.930396
20
47.076241
11
115.233087
21
46.872160
0
LINE
8
dots(not in use)
10
115.233087
20
46.872160
11
115.437166
21
46.569468
0
LINE
8
dots(not in use)
10
115.437166
20
46.569468
11
115.512000
21
46.198800
0
LINE
8
dots(not in use)
10
115.512000
20
46.198800
11
115.512000
21
46.198800
0
LINE
8
dots(not in use)
10
118.816000
20
46.218900
11
118.537085
21
45.545538
0
LINE
8
dots(not in use)
10
118.537085
20
45.545538
11
117.863723
21
45.266623
0
LINE
8
dots(not in use)
10
117.863723
20
45.266623
11
117.190361
21
45.545538
0
LINE
8
dots(not in use)
10
117.190361
20
45.545538
11
116.911446
21
46.218900
0
LINE
8
dots(not in use)
10
116.911446
20
46.218900
11
117.190361
21
46.892262
0
LINE
8
dots(not in use)
10
117.190361
20
46.892262
11
117.863723
21
47.171177
0
LINE
8
dots(not in use)
10
117.863723
20
47.171177
11
118.537085
21
46.892262
0
LINE
8
dots(not in use)
10
118.537085
20
46.892262
11
118.816000
21
46.218900
0
LINE
8
dots(not in use)
10
118.816000
20
46.218900
11
118.816000
21
46.218900
0
LINE
8
dots(not in use)
10
112.602000
20
43.446200
11
112.527166
21
43.075532
0
LINE
8
dots(not in use)
10
112.527166
20
43.075532
11
112.323087
21
42.772840
0
LINE
8
dots(not in use)
10
112.323087
20
42.772840
11
112.020396
21
42.568759
0
LINE
8
dots(not in use)
10
112.020396
20
42.568759
11
111.649728
21
42.493923
0
LINE
8
dots(not in use)
10
111.649728
20
42.493923
11
110.976366
21
42.772838
0
LINE
8
dots(not in use)
10
110.976366
20
42.772838
11
110.697451
21
43.446200
0
LINE
8
dots(not in use)
10
110.697451
20
43.446200
11
110.772287
21
43.816868
0
LINE
8
dots(not in use)
10
110.772287
20
43.816868
11
110.976368
21
44.119559
0
LINE
8
dots(not in use)
10
110.976368
20
44.119559
11
111.279060
21
44.323638
0
LINE
8
dots(not in use)
10
111.279060
20
44.323638
11
111.649728
21
44.398472
0
LINE
8
dots(not in use)
10
111.649728
20
44.398472
11
112.020395
21
44.323637
0
LINE
8
dots(not in use)
10
112.020395
20
44.323637
11
112.323085
21
44.119557
0
LINE
8
dots(not in use)
10
112.323085
20
44.119557
11
112.527165
21
43.816867
0
LINE
8
dots(not in use)
10
112.527165
20
43.816867
11
112.602000
21
43.446200
0
LINE
8
dots(not in use)
10
112.602000
20
43.446200
11
112.602000
21
43.446200
0
LINE
8
dots(not in use)
10
115.459000
20
43.466300
11
115.384164
21
43.095632
0
LINE
8
dots(not in use)
10
115.384164
20
43.095632
11
115.180083
21
42.792941
0
LINE
8
dots(not in use)
10
115.180083
20
42.792941
11
114.877391
21
42.588862
0
LINE
8
dots(not in use)
10
114.877391
20
42.588862
11
114.506723
21
42.514028
0
LINE
8
dots(not in use)
10
114.506723
20
42.514028
11
114.136056
21
42.588863
0
LINE
8
dots(not in use)
10
114.136056
20
42.588863
11
113.833366
21
42.792943
0
LINE
8
dots(not in use)
10
113.833366
20
42.792943
11
113.629286
21
43.095633
0
LINE
8
dots(not in use)
10
113.629286
20
43.095633
11
113.554451
21
43.466300
0
LINE
8
dots(not in use)
10
113.554451
20
43.466300
11
113.833363
21
44.139663
0
LINE
8
dots(not in use)
10
113.833363
20
44.139663
11
114.506723
21
44.418581
0
LINE
8
dots(not in use)
10
114.506723
20
44.418581
11
115.180086
21
44.139664
0
LINE
8
dots(not in use)
10
115.180086
20
44.139664
11
115.459000
21
43.466300
0
LINE
8
dots(not in use)
10
115.459000
20
43.466300
11
115.459000
21
43.466300
0
LINE
8
dots(not in use)
10
112.618000
20
50.866200
11
112.543164
21
50.495532
0
LINE
8
dots(not in use)
10
112.543164
20
50.495532
11
112.339083
21
50.192841
0
LINE
8
dots(not in use)
10
112.339083
20
50.192841
11
112.036391
21
49.988762
0
LINE
8
dots(not in use)
10
112.036391
20
49.988762
11
111.665723
21
49.913928
0
LINE
8
dots(not in use)
10
111.665723
20
49.913928
11
111.295056
21
49.988763
0
LINE
8
dots(not in use)
10
111.295056
20
49.988763
11
110.992366
21
50.192843
0
LINE
8
dots(not in use)
10
110.992366
20
50.192843
11
110.788286
21
50.495533
0
LINE
8
dots(not in use)
10
110.788286
20
50.495533
11
110.713451
21
50.866200
0
LINE
8
dots(not in use)
10
110.713451
20
50.866200
11
110.788285
21
51.236868
0
LINE
8
dots(not in use)
10
110.788285
20
51.236868
11
110.992364
21
51.539560
0
LINE
8
dots(not in use)
10
110.992364
20
51.539560
11
111.295055
21
51.743641
0
LINE
8
dots(not in use)
10
111.295055
20
51.743641
11
111.665723
21
51.818477
0
LINE
8
dots(not in use)
10
111.665723
20
51.818477
11
112.339085
21
51.539562
0
LINE
8
dots(not in use)
10
112.339085
20
51.539562
11
112.618000
21
50.866200
0
LINE
8
dots(not in use)
10
112.618000
20
50.866200
11
112.618000
21
50.866200
0
LINE
8
dots(not in use)
10
115.475000
20
50.886300
11
115.196085
21
50.212938
0
LINE
8
dots(not in use)
10
115.196085
20
50.212938
11
114.522723
21
49.934023
0
LINE
8
dots(not in use)
10
114.522723
20
49.934023
11
114.152055
21
50.008859
0
LINE
8
dots(not in use)
10
114.152055
20
50.008859
11
113.849364
21
50.212940
0
LINE
8
dots(not in use)
10
113.849364
20
50.212940
11
113.645285
21
50.515632
0
LINE
8
dots(not in use)
10
113.645285
20
50.515632
11
113.570451
21
50.886300
0
LINE
8
dots(not in use)
10
113.570451
20
50.886300
11
113.645285
21
51.256968
0
LINE
8
dots(not in use)
10
113.645285
20
51.256968
11
113.849364
21
51.559660
0
LINE
8
dots(not in use)
10
113.849364
20
51.559660
11
114.152055
21
51.763741
0
LINE
8
dots(not in use)
10
114.152055
20
51.763741
11
114.522723
21
51.838577
0
LINE
8
dots(not in use)
10
114.522723
20
51.838577
11
115.196085
21
51.559662
0
LINE
8
dots(not in use)
10
115.196085
20
51.559662
11
115.475000
21
50.886300
0
LINE
8
dots(not in use)
10
115.475000
20
50.886300
11
115.475000
21
50.886300
0
LINE
8
dots(not in use)
10
115.308000
20
33.995500
11
115.233164
21
33.624832
0
LINE
8
dots(not in use)
10
115.233164
20
33.624832
11
115.029083
21
33.322141
0
LINE
8
dots(not in use)
10
115.029083
20
33.322141
11
114.726391
21
33.118062
0
LINE
8
dots(not in use)
10
114.726391
20
33.118062
11
114.355723
21
33.043228
0
LINE
8
dots(not in use)
10
114.355723
20
33.043228
11
113.985056
21
33.118063
0
LINE
8
dots(not in use)
10
113.985056
20
33.118063
11
113.682366
21
33.322143
0
LINE
8
dots(not in use)
10
113.682366
20
33.322143
11
113.478286
21
33.624833
0
LINE
8
dots(not in use)
10
113.478286
20
33.624833
11
113.403451
21
33.995500
0
LINE
8
dots(not in use)
10
113.403451
20
33.995500
11
113.478285
21
34.366168
0
LINE
8
dots(not in use)
10
113.478285
20
34.366168
11
113.682364
21
34.668860
0
LINE
8
dots(not in use)
10
113.682364
20
34.668860
11
113.985055
21
34.872941
0
LINE
8
dots(not in use)
10
113.985055
20
34.872941
11
114.355723
21
34.947777
0
LINE
8
dots(not in use)
10
114.355723
20
34.947777
11
115.029085
21
34.668862
0
LINE
8
dots(not in use)
10
115.029085
20
34.668862
11
115.308000
21
33.995500
0
LINE
8
dots(not in use)
10
115.308000
20
33.995500
11
115.308000
21
33.995500
0
LINE
8
dots(not in use)
10
110.096000
20
31.403900
11
109.817086
21
30.730536
0
LINE
8
dots(not in use)
10
109.817086
20
30.730536
11
109.143723
21
30.451619
0
LINE
8
dots(not in use)
10
109.143723
20
30.451619
11
108.470360
21
30.730536
0
LINE
8
dots(not in use)
10
108.470360
20
30.730536
11
108.191446
21
31.403900
0
LINE
8
dots(not in use)
10
108.191446
20
31.403900
11
108.266282
21
31.774568
0
LINE
8
dots(not in use)
10
108.266282
20
31.774568
11
108.470363
21
32.077259
0
LINE
8
dots(not in use)
10
108.470363
20
32.077259
11
108.773055
21
32.281338
0
LINE
8
dots(not in use)
10
108.773055
20
32.281338
11
109.143723
21
32.356172
0
LINE
8
dots(not in use)
10
109.143723
20
32.356172
11
109.514391
21
32.281338
0
LINE
8
dots(not in use)
10
109.514391
20
32.281338
11
109.817083
21
32.077259
0
LINE
8
dots(not in use)
10
109.817083
20
32.077259
11
110.021164
21
31.774568
0
LINE
8
dots(not in use)
10
110.021164
20
31.774568
11
110.096000
21
31.403900
0
LINE
8
dots(not in use)
10
110.096000
20
31.403900
11
110.096000
21
31.403900
0
LINE
8
dots(not in use)
10
110.112000
20
33.797400
11
110.037166
21
33.426732
0
LINE
8
dots(not in use)
10
110.037166
20
33.426732
11
109.833087
21
33.124040
0
LINE
8
dots(not in use)
10
109.833087
20
33.124040
11
109.530396
21
32.919959
0
LINE
8
dots(not in use)
10
109.530396
20
32.919959
11
109.159728
21
32.845123
0
LINE
8
dots(not in use)
10
109.159728
20
32.845123
11
108.486366
21
33.124038
0
LINE
8
dots(not in use)
10
108.486366
20
33.124038
11
108.207451
21
33.797400
0
LINE
8
dots(not in use)
10
108.207451
20
33.797400
11
108.486366
21
34.470762
0
LINE
8
dots(not in use)
10
108.486366
20
34.470762
11
109.159728
21
34.749677
0
LINE
8
dots(not in use)
10
109.159728
20
34.749677
11
109.530396
21
34.674841
0
LINE
8
dots(not in use)
10
109.530396
20
34.674841
11
109.833087
21
34.470760
0
LINE
8
dots(not in use)
10
109.833087
20
34.470760
11
110.037166
21
34.168068
0
LINE
8
dots(not in use)
10
110.037166
20
34.168068
11
110.112000
21
33.797400
0
LINE
8
dots(not in use)
10
110.112000
20
33.797400
11
110.112000
21
33.797400
0
LINE
8
dots(not in use)
10
118.613000
20
34.015700
11
118.538165
21
33.645033
0
LINE
8
dots(not in use)
10
118.538165
20
33.645033
11
118.334085
21
33.342343
0
LINE
8
dots(not in use)
10
118.334085
20
33.342343
11
118.031395
21
33.138263
0
LINE
8
dots(not in use)
10
118.031395
20
33.138263
11
117.660728
21
33.063428
0
LINE
8
dots(not in use)
10
117.660728
20
33.063428
11
117.290060
21
33.138262
0
LINE
8
dots(not in use)
10
117.290060
20
33.138262
11
116.987368
21
33.342341
0
LINE
8
dots(not in use)
10
116.987368
20
33.342341
11
116.783287
21
33.645032
0
LINE
8
dots(not in use)
10
116.783287
20
33.645032
11
116.708451
21
34.015700
0
LINE
8
dots(not in use)
10
116.708451
20
34.015700
11
116.987366
21
34.689062
0
LINE
8
dots(not in use)
10
116.987366
20
34.689062
11
117.660728
21
34.967977
0
LINE
8
dots(not in use)
10
117.660728
20
34.967977
11
118.031396
21
34.893141
0
LINE
8
dots(not in use)
10
118.031396
20
34.893141
11
118.334087
21
34.689060
0
LINE
8
dots(not in use)
10
118.334087
20
34.689060
11
118.538166
21
34.386368
0
LINE
8
dots(not in use)
10
118.538166
20
34.386368
11
118.613000
21
34.015700
0
LINE
8
dots(not in use)
10
118.613000
20
34.015700
11
118.613000
21
34.015700
0
LINE
8
dots(not in use)
10
35.386600
20
45.801600
11
35.311766
21
45.430931
0
LINE
8
dots(not in use)
10
35.311766
20
45.430931
11
35.107686
21
45.128239
0
LINE
8
dots(not in use)
10
35.107686
20
45.128239
11
34.804994
21
44.924158
0
LINE
8
dots(not in use)
10
34.804994
20
44.924158
11
34.434325
21
44.849323
0
LINE
8
dots(not in use)
10
34.434325
20
44.849323
11
33.760964
21
45.128239
0
LINE
8
dots(not in use)
10
33.760964
20
45.128239
11
33.482049
21
45.801600
0
LINE
8
dots(not in use)
10
33.482049
20
45.801600
11
33.556885
21
46.172268
0
LINE
8
dots(not in use)
10
33.556885
20
46.172268
11
33.760966
21
46.474958
0
LINE
8
dots(not in use)
10
33.760966
20
46.474958
11
34.063657
21
46.679038
0
LINE
8
dots(not in use)
10
34.063657
20
46.679038
11
34.434325
21
46.753872
0
LINE
8
dots(not in use)
10
34.434325
20
46.753872
11
34.804993
21
46.679038
0
LINE
8
dots(not in use)
10
34.804993
20
46.679038
11
35.107684
21
46.474958
0
LINE
8
dots(not in use)
10
35.107684
20
46.474958
11
35.311764
21
46.172267
0
LINE
8
dots(not in use)
10
35.311764
20
46.172267
11
35.386600
21
45.801600
0
LINE
8
dots(not in use)
10
35.386600
20
45.801600
11
35.386600
21
45.801600
0
LINE
8
dots(not in use)
10
38.000600
20
45.803000
11
37.925766
21
45.432331
0
LINE
8
dots(not in use)
10
37.925766
20
45.432331
11
37.721686
21
45.129639
0
LINE
8
dots(not in use)
10
37.721686
20
45.129639
11
37.418994
21
44.925558
0
LINE
8
dots(not in use)
10
37.418994
20
44.925558
11
37.048325
21
44.850723
0
LINE
8
dots(not in use)
10
37.048325
20
44.850723
11
36.677656
21
44.925558
0
LINE
8
dots(not in use)
10
36.677656
20
44.925558
11
36.374964
21
45.129639
0
LINE
8
dots(not in use)
10
36.374964
20
45.129639
11
36.170884
21
45.432331
0
LINE
8
dots(not in use)
10
36.170884
20
45.432331
11
36.096050
21
45.803000
0
LINE
8
dots(not in use)
10
36.096050
20
45.803000
11
36.170886
21
46.173667
0
LINE
8
dots(not in use)
10
36.170886
20
46.173667
11
36.374966
21
46.476358
0
LINE
8
dots(not in use)
10
36.374966
20
46.476358
11
36.677657
21
46.680438
0
LINE
8
dots(not in use)
10
36.677657
20
46.680438
11
37.048325
21
46.755272
0
LINE
8
dots(not in use)
10
37.048325
20
46.755272
11
37.418993
21
46.680438
0
LINE
8
dots(not in use)
10
37.418993
20
46.680438
11
37.721684
21
46.476358
0
LINE
8
dots(not in use)
10
37.721684
20
46.476358
11
37.925764
21
46.173667
0
LINE
8
dots(not in use)
10
37.925764
20
46.173667
11
38.000600
21
45.803000
0
LINE
8
dots(not in use)
10
38.000600
20
45.803000
11
38.000600
21
45.803000
0
LINE
8
dots(not in use)
10
38.048100
20
72.807700
11
37.973264
21
72.437032
0
LINE
8
dots(not in use)
10
37.973264
20
72.437032
11
37.769183
21
72.134342
0
LINE
8
dots(not in use)
10
37.769183
20
72.134342
11
37.466492
21
71.930262
0
LINE
8
dots(not in use)
10
37.466492
20
71.930262
11
37.095824
21
71.855428
0
LINE
8
dots(not in use)
10
37.095824
20
71.855428
11
36.725156
21
71.930262
0
LINE
8
dots(not in use)
10
36.725156
20
71.930262
11
36.422465
21
72.134342
0
LINE
8
dots(not in use)
10
36.422465
20
72.134342
11
36.218385
21
72.437033
0
LINE
8
dots(not in use)
10
36.218385
20
72.437033
11
36.143549
21
72.807700
0
LINE
8
dots(not in use)
10
36.143549
20
72.807700
11
36.218383
21
73.178369
0
LINE
8
dots(not in use)
10
36.218383
20
73.178369
11
36.422463
21
73.481061
0
LINE
8
dots(not in use)
10
36.422463
20
73.481061
11
36.725155
21
73.685142
0
LINE
8
dots(not in use)
10
36.725155
20
73.685142
11
37.095824
21
73.759977
0
LINE
8
dots(not in use)
10
37.095824
20
73.759977
11
37.769185
21
73.481061
0
LINE
8
dots(not in use)
10
37.769185
20
73.481061
11
38.048100
21
72.807700
0
LINE
8
dots(not in use)
10
38.048100
20
72.807700
11
38.048100
21
72.807700
0
LINE
8
dots(not in use)
10
37.928500
20
66.476400
11
37.853666
21
66.105731
0
LINE
8
dots(not in use)
10
37.853666
20
66.105731
11
37.649586
21
65.803039
0
LINE
8
dots(not in use)
10
37.649586
20
65.803039
11
37.346894
21
65.598958
0
LINE
8
dots(not in use)
10
37.346894
20
65.598958
11
36.976225
21
65.524123
0
LINE
8
dots(not in use)
10
36.976225
20
65.524123
11
36.605556
21
65.598958
0
LINE
8
dots(not in use)
10
36.605556
20
65.598958
11
36.302864
21
65.803039
0
LINE
8
dots(not in use)
10
36.302864
20
65.803039
11
36.098784
21
66.105731
0
LINE
8
dots(not in use)
10
36.098784
20
66.105731
11
36.023950
21
66.476400
0
LINE
8
dots(not in use)
10
36.023950
20
66.476400
11
36.098786
21
66.847067
0
LINE
8
dots(not in use)
10
36.098786
20
66.847067
11
36.302866
21
67.149758
0
LINE
8
dots(not in use)
10
36.302866
20
67.149758
11
36.605557
21
67.353838
0
LINE
8
dots(not in use)
10
36.605557
20
67.353838
11
36.976225
21
67.428672
0
LINE
8
dots(not in use)
10
36.976225
20
67.428672
11
37.346893
21
67.353838
0
LINE
8
dots(not in use)
10
37.346893
20
67.353838
11
37.649584
21
67.149758
0
LINE
8
dots(not in use)
10
37.649584
20
67.149758
11
37.853664
21
66.847067
0
LINE
8
dots(not in use)
10
37.853664
20
66.847067
11
37.928500
21
66.476400
0
LINE
8
dots(not in use)
10
37.928500
20
66.476400
11
37.928500
21
66.476400
0
LINE
8
dots(not in use)
10
28.929700
20
66.413800
11
28.650785
21
65.740439
0
LINE
8
dots(not in use)
10
28.650785
20
65.740439
11
27.977424
21
65.461523
0
LINE
8
dots(not in use)
10
27.977424
20
65.461523
11
27.606755
21
65.536358
0
LINE
8
dots(not in use)
10
27.606755
20
65.536358
11
27.304063
21
65.740439
0
LINE
8
dots(not in use)
10
27.304063
20
65.740439
11
27.099983
21
66.043131
0
LINE
8
dots(not in use)
10
27.099983
20
66.043131
11
27.025149
21
66.413800
0
LINE
8
dots(not in use)
10
27.025149
20
66.413800
11
27.099983
21
66.784469
0
LINE
8
dots(not in use)
10
27.099983
20
66.784469
11
27.304063
21
67.087161
0
LINE
8
dots(not in use)
10
27.304063
20
67.087161
11
27.606755
21
67.291242
0
LINE
8
dots(not in use)
10
27.606755
20
67.291242
11
27.977424
21
67.366077
0
LINE
8
dots(not in use)
10
27.977424
20
67.366077
11
28.650785
21
67.087161
0
LINE
8
dots(not in use)
10
28.650785
20
67.087161
11
28.929700
21
66.413800
0
LINE
8
dots(not in use)
10
28.929700
20
66.413800
11
28.929700
21
66.413800
0
LINE
8
dots(not in use)
10
29.102500
20
72.959700
11
29.027666
21
72.589031
0
LINE
8
dots(not in use)
10
29.027666
20
72.589031
11
28.823586
21
72.286339
0
LINE
8
dots(not in use)
10
28.823586
20
72.286339
11
28.520894
21
72.082258
0
LINE
8
dots(not in use)
10
28.520894
20
72.082258
11
28.150225
21
72.007423
0
LINE
8
dots(not in use)
10
28.150225
20
72.007423
11
27.476864
21
72.286339
0
LINE
8
dots(not in use)
10
27.476864
20
72.286339
11
27.197949
21
72.959700
0
LINE
8
dots(not in use)
10
27.197949
20
72.959700
11
27.476864
21
73.633061
0
LINE
8
dots(not in use)
10
27.476864
20
73.633061
11
28.150225
21
73.911977
0
LINE
8
dots(not in use)
10
28.150225
20
73.911977
11
28.520894
21
73.837142
0
LINE
8
dots(not in use)
10
28.520894
20
73.837142
11
28.823586
21
73.633061
0
LINE
8
dots(not in use)
10
28.823586
20
73.633061
11
29.027666
21
73.330369
0
LINE
8
dots(not in use)
10
29.027666
20
73.330369
11
29.102500
21
72.959700
0
LINE
8
dots(not in use)
10
29.102500
20
72.959700
11
29.102500
21
72.959700
0
LINE
8
dots(not in use)
10
26.008000
20
66.623800
11
25.933166
21
66.253131
0
LINE
8
dots(not in use)
10
25.933166
20
66.253131
11
25.729086
21
65.950439
0
LINE
8
dots(not in use)
10
25.729086
20
65.950439
11
25.426394
21
65.746358
0
LINE
8
dots(not in use)
10
25.426394
20
65.746358
11
25.055725
21
65.671523
0
LINE
8
dots(not in use)
10
25.055725
20
65.671523
11
24.685056
21
65.746358
0
LINE
8
dots(not in use)
10
24.685056
20
65.746358
11
24.382364
21
65.950439
0
LINE
8
dots(not in use)
10
24.382364
20
65.950439
11
24.178284
21
66.253131
0
LINE
8
dots(not in use)
10
24.178284
20
66.253131
11
24.103450
21
66.623800
0
LINE
8
dots(not in use)
10
24.103450
20
66.623800
11
24.178284
21
66.994469
0
LINE
8
dots(not in use)
10
24.178284
20
66.994469
11
24.382364
21
67.297161
0
LINE
8
dots(not in use)
10
24.382364
20
67.297161
11
24.685056
21
67.501242
0
LINE
8
dots(not in use)
10
24.685056
20
67.501242
11
25.055725
21
67.576077
0
LINE
8
dots(not in use)
10
25.055725
20
67.576077
11
25.426394
21
67.501242
0
LINE
8
dots(not in use)
10
25.426394
20
67.501242
11
25.729086
21
67.297161
0
LINE
8
dots(not in use)
10
25.729086
20
67.297161
11
25.933166
21
66.994469
0
LINE
8
dots(not in use)
10
25.933166
20
66.994469
11
26.008000
21
66.623800
0
LINE
8
dots(not in use)
10
26.008000
20
66.623800
11
26.008000
21
66.623800
0
LINE
8
dots(not in use)
10
48.258600
20
36.413000
11
48.183766
21
36.042331
0
LINE
8
dots(not in use)
10
48.183766
20
36.042331
11
47.979686
21
35.739639
0
LINE
8
dots(not in use)
10
47.979686
20
35.739639
11
47.676994
21
35.535558
0
LINE
8
dots(not in use)
10
47.676994
20
35.535558
11
47.306325
21
35.460723
0
LINE
8
dots(not in use)
10
47.306325
20
35.460723
11
46.935656
21
35.535558
0
LINE
8
dots(not in use)
10
46.935656
20
35.535558
11
46.632964
21
35.739639
0
LINE
8
dots(not in use)
10
46.632964
20
35.739639
11
46.428884
21
36.042331
0
LINE
8
dots(not in use)
10
46.428884
20
36.042331
11
46.354050
21
36.413000
0
LINE
8
dots(not in use)
10
46.354050
20
36.413000
11
46.428886
21
36.783667
0
LINE
8
dots(not in use)
10
46.428886
20
36.783667
11
46.632966
21
37.086358
0
LINE
8
dots(not in use)
10
46.632966
20
37.086358
11
46.935657
21
37.290438
0
LINE
8
dots(not in use)
10
46.935657
20
37.290438
11
47.306325
21
37.365272
0
LINE
8
dots(not in use)
10
47.306325
20
37.365272
11
47.676993
21
37.290438
0
LINE
8
dots(not in use)
10
47.676993
20
37.290438
11
47.979684
21
37.086358
0
LINE
8
dots(not in use)
10
47.979684
20
37.086358
11
48.183764
21
36.783667
0
LINE
8
dots(not in use)
10
48.183764
20
36.783667
11
48.258600
21
36.413000
0
LINE
8
dots(not in use)
10
48.258600
20
36.413000
11
48.258600
21
36.413000
0
LINE
8
dots(not in use)
10
48.313800
20
33.984700
11
48.238966
21
33.614031
0
LINE
8
dots(not in use)
10
48.238966
20
33.614031
11
48.034886
21
33.311339
0
LINE
8
dots(not in use)
10
48.034886
20
33.311339
11
47.732194
21
33.107258
0
LINE
8
dots(not in use)
10
47.732194
20
33.107258
11
47.361525
21
33.032423
0
LINE
8
dots(not in use)
10
47.361525
20
33.032423
11
46.688164
21
33.311339
0
LINE
8
dots(not in use)
10
46.688164
20
33.311339
11
46.409249
21
33.984700
0
LINE
8
dots(not in use)
10
46.409249
20
33.984700
11
46.688164
21
34.658061
0
LINE
8
dots(not in use)
10
46.688164
20
34.658061
11
47.361525
21
34.936977
0
LINE
8
dots(not in use)
10
47.361525
20
34.936977
11
47.732194
21
34.862142
0
LINE
8
dots(not in use)
10
47.732194
20
34.862142
11
48.034886
21
34.658061
0
LINE
8
dots(not in use)
10
48.034886
20
34.658061
11
48.238966
21
34.355369
0
LINE
8
dots(not in use)
10
48.238966
20
34.355369
11
48.313800
21
33.984700
0
LINE
8
dots(not in use)
10
48.313800
20
33.984700
11
48.313800
21
33.984700
0
LINE
8
dots(not in use)
10
59.867700
20
72.857200
11
59.588785
21
72.183838
0
LINE
8
dots(not in use)
10
59.588785
20
72.183838
11
58.915423
21
71.904923
0
LINE
8
dots(not in use)
10
58.915423
20
71.904923
11
58.544755
21
71.979759
0
LINE
8
dots(not in use)
10
58.544755
20
71.979759
11
58.242064
21
72.183840
0
LINE
8
dots(not in use)
10
58.242064
20
72.183840
11
58.037985
21
72.486532
0
LINE
8
dots(not in use)
10
58.037985
20
72.486532
11
57.963151
21
72.857200
0
LINE
8
dots(not in use)
10
57.963151
20
72.857200
11
58.037985
21
73.227868
0
LINE
8
dots(not in use)
10
58.037985
20
73.227868
11
58.242064
21
73.530560
0
LINE
8
dots(not in use)
10
58.242064
20
73.530560
11
58.544755
21
73.734641
0
LINE
8
dots(not in use)
10
58.544755
20
73.734641
11
58.915423
21
73.809477
0
LINE
8
dots(not in use)
10
58.915423
20
73.809477
11
59.588785
21
73.530562
0
LINE
8
dots(not in use)
10
59.588785
20
73.530562
11
59.867700
21
72.857200
0
LINE
8
dots(not in use)
10
59.867700
20
72.857200
11
59.867700
21
72.857200
0
LINE
8
dots(not in use)
10
59.804800
20
79.177900
11
59.729964
21
78.807232
0
LINE
8
dots(not in use)
10
59.729964
20
78.807232
11
59.525883
21
78.504541
0
LINE
8
dots(not in use)
10
59.525883
20
78.504541
11
59.223191
21
78.300462
0
LINE
8
dots(not in use)
10
59.223191
20
78.300462
11
58.852523
21
78.225628
0
LINE
8
dots(not in use)
10
58.852523
20
78.225628
11
58.481855
21
78.300462
0
LINE
8
dots(not in use)
10
58.481855
20
78.300462
11
58.179163
21
78.504541
0
LINE
8
dots(not in use)
10
58.179163
20
78.504541
11
57.975082
21
78.807232
0
LINE
8
dots(not in use)
10
57.975082
20
78.807232
11
57.900246
21
79.177900
0
LINE
8
dots(not in use)
10
57.900246
20
79.177900
11
58.179161
21
79.851262
0
LINE
8
dots(not in use)
10
58.179161
20
79.851262
11
58.852523
21
80.130177
0
LINE
8
dots(not in use)
10
58.852523
20
80.130177
11
59.525885
21
79.851262
0
LINE
8
dots(not in use)
10
59.525885
20
79.851262
11
59.804800
21
79.177900
0
LINE
8
dots(not in use)
10
59.804800
20
79.177900
11
59.804800
21
79.177900
0
LINE
8
dots(not in use)
10
51.113100
20
72.938500
11
51.038264
21
72.567832
0
LINE
8
dots(not in use)
10
51.038264
20
72.567832
11
50.834183
21
72.265141
0
LINE
8
dots(not in use)
10
50.834183
20
72.265141
11
50.531491
21
72.061062
0
LINE
8
dots(not in use)
10
50.531491
20
72.061062
11
50.160823
21
71.986228
0
LINE
8
dots(not in use)
10
50.160823
20
71.986228
11
49.790155
21
72.061062
0
LINE
8
dots(not in use)
10
49.790155
20
72.061062
11
49.487464
21
72.265142
0
LINE
8
dots(not in use)
10
49.487464
20
72.265142
11
49.283384
21
72.567833
0
LINE
8
dots(not in use)
10
49.283384
20
72.567833
11
49.208548
21
72.938500
0
LINE
8
dots(not in use)
10
49.208548
20
72.938500
11
49.283382
21
73.309169
0
LINE
8
dots(not in use)
10
49.283382
20
73.309169
11
49.487462
21
73.611861
0
LINE
8
dots(not in use)
10
49.487462
20
73.611861
11
49.790154
21
73.815942
0
LINE
8
dots(not in use)
10
49.790154
20
73.815942
11
50.160823
21
73.890777
0
LINE
8
dots(not in use)
10
50.160823
20
73.890777
11
50.834185
21
73.611862
0
LINE
8
dots(not in use)
10
50.834185
20
73.611862
11
51.113100
21
72.938500
0
LINE
8
dots(not in use)
10
51.113100
20
72.938500
11
51.113100
21
72.938500
0
LINE
8
dots(not in use)
10
51.050100
20
79.259200
11
50.975265
21
78.888533
0
LINE
8
dots(not in use)
10
50.975265
20
78.888533
11
50.771185
21
78.585843
0
LINE
8
dots(not in use)
10
50.771185
20
78.585843
11
50.468495
21
78.381763
0
LINE
8
dots(not in use)
10
50.468495
20
78.381763
11
50.097828
21
78.306928
0
LINE
8
dots(not in use)
10
50.097828
20
78.306928
11
49.727160
21
78.381762
0
LINE
8
dots(not in use)
10
49.727160
20
78.381762
11
49.424468
21
78.585841
0
LINE
8
dots(not in use)
10
49.424468
20
78.585841
11
49.220387
21
78.888532
0
LINE
8
dots(not in use)
10
49.220387
20
78.888532
11
49.145551
21
79.259200
0
LINE
8
dots(not in use)
10
49.145551
20
79.259200
11
49.424466
21
79.932562
0
LINE
8
dots(not in use)
10
49.424466
20
79.932562
11
50.097828
21
80.211477
0
LINE
8
dots(not in use)
10
50.097828
20
80.211477
11
50.468496
21
80.136641
0
LINE
8
dots(not in use)
10
50.468496
20
80.136641
11
50.771187
21
79.932560
0
LINE
8
dots(not in use)
10
50.771187
20
79.932560
11
50.975266
21
79.629868
0
LINE
8
dots(not in use)
10
50.975266
20
79.629868
11
51.050100
21
79.259200
0
LINE
8
dots(not in use)
10
51.050100
20
79.259200
11
51.050100
21
79.259200
0
LINE
8
dots(not in use)
10
103.668000
20
72.769700
11
103.593166
21
72.399032
0
LINE
8
dots(not in use)
10
103.593166
20
72.399032
11
103.389087
21
72.096340
0
LINE
8
dots(not in use)
10
103.389087
20
72.096340
11
103.086396
21
71.892259
0
LINE
8
dots(not in use)
10
103.086396
20
71.892259
11
102.715728
21
71.817423
0
LINE
8
dots(not in use)
10
102.715728
20
71.817423
11
102.042366
21
72.096338
0
LINE
8
dots(not in use)
10
102.042366
20
72.096338
11
101.763451
21
72.769700
0
LINE
8
dots(not in use)
10
101.763451
20
72.769700
11
102.042366
21
73.443062
0
LINE
8
dots(not in use)
10
102.042366
20
73.443062
11
102.715728
21
73.721977
0
LINE
8
dots(not in use)
10
102.715728
20
73.721977
11
103.086396
21
73.647141
0
LINE
8
dots(not in use)
10
103.086396
20
73.647141
11
103.389087
21
73.443060
0
LINE
8
dots(not in use)
10
103.389087
20
73.443060
11
103.593166
21
73.140368
0
LINE
8
dots(not in use)
10
103.593166
20
73.140368
11
103.668000
21
72.769700
0
LINE
8
dots(not in use)
10
103.668000
20
72.769700
11
103.668000
21
72.769700
0
LINE
8
dots(not in use)
10
103.605000
20
79.090400
11
103.530164
21
78.719732
0
LINE
8
dots(not in use)
10
103.530164
20
78.719732
11
103.326083
21
78.417041
0
LINE
8
dots(not in use)
10
103.326083
20
78.417041
11
103.023391
21
78.212962
0
LINE
8
dots(not in use)
10
103.023391
20
78.212962
11
102.652723
21
78.138128
0
LINE
8
dots(not in use)
10
102.652723
20
78.138128
11
102.282055
21
78.212962
0
LINE
8
dots(not in use)
10
102.282055
20
78.212962
11
101.979363
21
78.417041
0
LINE
8
dots(not in use)
10
101.979363
20
78.417041
11
101.775282
21
78.719732
0
LINE
8
dots(not in use)
10
101.775282
20
78.719732
11
101.700446
21
79.090400
0
LINE
8
dots(not in use)
10
101.700446
20
79.090400
11
101.979361
21
79.763762
0
LINE
8
dots(not in use)
10
101.979361
20
79.763762
11
102.652723
21
80.042677
0
LINE
8
dots(not in use)
10
102.652723
20
80.042677
11
103.326085
21
79.763762
0
LINE
8
dots(not in use)
10
103.326085
20
79.763762
11
103.605000
21
79.090400
0
LINE
8
dots(not in use)
10
103.605000
20
79.090400
11
103.605000
21
79.090400
0
LINE
8
dots(not in use)
10
59.923100
20
69.457200
11
59.848264
21
69.086532
0
LINE
8
dots(not in use)
10
59.848264
20
69.086532
11
59.644183
21
68.783841
0
LINE
8
dots(not in use)
10
59.644183
20
68.783841
11
59.341491
21
68.579762
0
LINE
8
dots(not in use)
10
59.341491
20
68.579762
11
58.970823
21
68.504928
0
LINE
8
dots(not in use)
10
58.970823
20
68.504928
11
58.600155
21
68.579762
0
LINE
8
dots(not in use)
10
58.600155
20
68.579762
11
58.297463
21
68.783841
0
LINE
8
dots(not in use)
10
58.297463
20
68.783841
11
58.093382
21
69.086532
0
LINE
8
dots(not in use)
10
58.093382
20
69.086532
11
58.018546
21
69.457200
0
LINE
8
dots(not in use)
10
58.018546
20
69.457200
11
58.297461
21
70.130562
0
LINE
8
dots(not in use)
10
58.297461
20
70.130562
11
58.970823
21
70.409477
0
LINE
8
dots(not in use)
10
58.970823
20
70.409477
11
59.644185
21
70.130562
0
LINE
8
dots(not in use)
10
59.644185
20
70.130562
11
59.923100
21
69.457200
0
LINE
8
dots(not in use)
10
59.923100
20
69.457200
11
59.923100
21
69.457200
0
LINE
8
dots(not in use)
10
83.325100
20
76.461600
11
83.046183
21
75.788237
0
LINE
8
dots(not in use)
10
83.046183
20
75.788237
11
82.372819
21
75.509323
0
LINE
8
dots(not in use)
10
82.372819
20
75.509323
11
81.699457
21
75.788238
0
LINE
8
dots(not in use)
10
81.699457
20
75.788238
11
81.420542
21
76.461600
0
LINE
8
dots(not in use)
10
81.420542
20
76.461600
11
81.699457
21
77.134962
0
LINE
8
dots(not in use)
10
81.699457
20
77.134962
11
82.372819
21
77.413877
0
LINE
8
dots(not in use)
10
82.372819
20
77.413877
11
83.046183
21
77.134963
0
LINE
8
dots(not in use)
10
83.046183
20
77.134963
11
83.325100
21
76.461600
0
LINE
8
dots(not in use)
10
83.325100
20
76.461600
11
83.325100
21
76.461600
0
LINE
8
dots(not in use)
10
83.248500
20
72.979700
11
82.969585
21
72.306338
0
LINE
8
dots(not in use)
10
82.969585
20
72.306338
11
82.296223
21
72.027423
0
LINE
8
dots(not in use)
10
82.296223
20
72.027423
11
81.622861
21
72.306338
0
LINE
8
dots(not in use)
10
81.622861
20
72.306338
11
81.343946
21
72.979700
0
LINE
8
dots(not in use)
10
81.343946
20
72.979700
11
81.418782
21
73.350368
0
LINE
8
dots(not in use)
10
81.418782
20
73.350368
11
81.622863
21
73.653059
0
LINE
8
dots(not in use)
10
81.622863
20
73.653059
11
81.925555
21
73.857138
0
LINE
8
dots(not in use)
10
81.925555
20
73.857138
11
82.296223
21
73.931972
0
LINE
8
dots(not in use)
10
82.296223
20
73.931972
11
82.666891
21
73.857138
0
LINE
8
dots(not in use)
10
82.666891
20
73.857138
11
82.969583
21
73.653059
0
LINE
8
dots(not in use)
10
82.969583
20
73.653059
11
83.173664
21
73.350368
0
LINE
8
dots(not in use)
10
83.173664
20
73.350368
11
83.248500
21
72.979700
0
LINE
8
dots(not in use)
10
83.248500
20
72.979700
11
83.248500
21
72.979700
0
LINE
8
dots(not in use)
10
89.985300
20
72.937900
11
89.910466
21
72.567232
0
LINE
8
dots(not in use)
10
89.910466
20
72.567232
11
89.706387
21
72.264540
0
LINE
8
dots(not in use)
10
89.706387
20
72.264540
11
89.403696
21
72.060459
0
LINE
8
dots(not in use)
10
89.403696
20
72.060459
11
89.033028
21
71.985623
0
LINE
8
dots(not in use)
10
89.033028
20
71.985623
11
88.359666
21
72.264538
0
LINE
8
dots(not in use)
10
88.359666
20
72.264538
11
88.080751
21
72.937900
0
LINE
8
dots(not in use)
10
88.080751
20
72.937900
11
88.359666
21
73.611262
0
LINE
8
dots(not in use)
10
88.359666
20
73.611262
11
89.033028
21
73.890177
0
LINE
8
dots(not in use)
10
89.033028
20
73.890177
11
89.403696
21
73.815341
0
LINE
8
dots(not in use)
10
89.403696
20
73.815341
11
89.706387
21
73.611260
0
LINE
8
dots(not in use)
10
89.706387
20
73.611260
11
89.910466
21
73.308568
0
LINE
8
dots(not in use)
10
89.910466
20
73.308568
11
89.985300
21
72.937900
0
LINE
8
dots(not in use)
10
89.985300
20
72.937900
11
89.985300
21
72.937900
0
LINE
8
dots(not in use)
10
90.040700
20
69.537900
11
89.965864
21
69.167232
0
LINE
8
dots(not in use)
10
89.965864
20
69.167232
11
89.761783
21
68.864541
0
LINE
8
dots(not in use)
10
89.761783
20
68.864541
11
89.459091
21
68.660462
0
LINE
8
dots(not in use)
10
89.459091
20
68.660462
11
89.088423
21
68.585628
0
LINE
8
dots(not in use)
10
89.088423
20
68.585628
11
88.717756
21
68.660463
0
LINE
8
dots(not in use)
10
88.717756
20
68.660463
11
88.415066
21
68.864543
0
LINE
8
dots(not in use)
10
88.415066
20
68.864543
11
88.210986
21
69.167233
0
LINE
8
dots(not in use)
10
88.210986
20
69.167233
11
88.136151
21
69.537900
0
LINE
8
dots(not in use)
10
88.136151
20
69.537900
11
88.210985
21
69.908568
0
LINE
8
dots(not in use)
10
88.210985
20
69.908568
11
88.415064
21
70.211260
0
LINE
8
dots(not in use)
10
88.415064
20
70.211260
11
88.717755
21
70.415341
0
LINE
8
dots(not in use)
10
88.717755
20
70.415341
11
89.088423
21
70.490177
0
LINE
8
dots(not in use)
10
89.088423
20
70.490177
11
89.761785
21
70.211262
0
LINE
8
dots(not in use)
10
89.761785
20
70.211262
11
90.040700
21
69.537900
0
LINE
8
dots(not in use)
10
90.040700
20
69.537900
11
90.040700
21
69.537900
0
LINE
8
dots(not in use)
10
110.892000
20
76.457200
11
110.817165
21
76.086533
0
LINE
8
dots(not in use)
10
110.817165
20
76.086533
11
110.613085
21
75.783843
0
LINE
8
dots(not in use)
10
110.613085
20
75.783843
11
110.310395
21
75.579763
0
LINE
8
dots(not in use)
10
110.310395
20
75.579763
11
109.939728
21
75.504928
0
LINE
8
dots(not in use)
10
109.939728
20
75.504928
11
109.569060
21
75.579762
0
LINE
8
dots(not in use)
10
109.569060
20
75.579762
11
109.266368
21
75.783841
0
LINE
8
dots(not in use)
10
109.266368
20
75.783841
11
109.062287
21
76.086532
0
LINE
8
dots(not in use)
10
109.062287
20
76.086532
11
108.987451
21
76.457200
0
LINE
8
dots(not in use)
10
108.987451
20
76.457200
11
109.266366
21
77.130562
0
LINE
8
dots(not in use)
10
109.266366
20
77.130562
11
109.939728
21
77.409477
0
LINE
8
dots(not in use)
10
109.939728
20
77.409477
11
110.310396
21
77.334641
0
LINE
8
dots(not in use)
10
110.310396
20
77.334641
11
110.613087
21
77.130560
0
LINE
8
dots(not in use)
10
110.613087
20
77.130560
11
110.817166
21
76.827868
0
LINE
8
dots(not in use)
10
110.817166
20
76.827868
11
110.892000
21
76.457200
0
LINE
8
dots(not in use)
10
110.892000
20
76.457200
11
110.892000
21
76.457200
0
LINE
8
dots(not in use)
10
110.947000
20
73.057200
11
110.668085
21
72.383838
0
LINE
8
dots(not in use)
10
110.668085
20
72.383838
11
109.994723
21
72.104923
0
LINE
8
dots(not in use)
10
109.994723
20
72.104923
11
109.624055
21
72.179759
0
LINE
8
dots(not in use)
10
109.624055
20
72.179759
11
109.321364
21
72.383840
0
LINE
8
dots(not in use)
10
109.321364
20
72.383840
11
109.117285
21
72.686532
0
LINE
8
dots(not in use)
10
109.117285
20
72.686532
11
109.042451
21
73.057200
0
LINE
8
dots(not in use)
10
109.042451
20
73.057200
11
109.117286
21
73.427867
0
LINE
8
dots(not in use)
10
109.117286
20
73.427867
11
109.321366
21
73.730557
0
LINE
8
dots(not in use)
10
109.321366
20
73.730557
11
109.624056
21
73.934637
0
LINE
8
dots(not in use)
10
109.624056
20
73.934637
11
109.994723
21
74.009472
0
LINE
8
dots(not in use)
10
109.994723
20
74.009472
11
110.365391
21
73.934638
0
LINE
8
dots(not in use)
10
110.365391
20
73.934638
11
110.668083
21
73.730559
0
LINE
8
dots(not in use)
10
110.668083
20
73.730559
11
110.872164
21
73.427868
0
LINE
8
dots(not in use)
10
110.872164
20
73.427868
11
110.947000
21
73.057200
0
LINE
8
dots(not in use)
10
110.947000
20
73.057200
11
110.947000
21
73.057200
0
LINE
8
dots(not in use)
10
41.979100
20
76.420500
11
41.700185
21
75.747139
0
LINE
8
dots(not in use)
10
41.700185
20
75.747139
11
41.026824
21
75.468223
0
LINE
8
dots(not in use)
10
41.026824
20
75.468223
11
40.656155
21
75.543058
0
LINE
8
dots(not in use)
10
40.656155
20
75.543058
11
40.353463
21
75.747139
0
LINE
8
dots(not in use)
10
40.353463
20
75.747139
11
40.149383
21
76.049831
0
LINE
8
dots(not in use)
10
40.149383
20
76.049831
11
40.074549
21
76.420500
0
LINE
8
dots(not in use)
10
40.074549
20
76.420500
11
40.149383
21
76.791169
0
LINE
8
dots(not in use)
10
40.149383
20
76.791169
11
40.353463
21
77.093861
0
LINE
8
dots(not in use)
10
40.353463
20
77.093861
11
40.656155
21
77.297942
0
LINE
8
dots(not in use)
10
40.656155
20
77.297942
11
41.026824
21
77.372777
0
LINE
8
dots(not in use)
10
41.026824
20
77.372777
11
41.700185
21
77.093861
0
LINE
8
dots(not in use)
10
41.700185
20
77.093861
11
41.979100
21
76.420500
0
LINE
8
dots(not in use)
10
41.979100
20
76.420500
11
41.979100
21
76.420500
0
LINE
8
dots(not in use)
10
42.034500
20
73.020500
11
41.959666
21
72.649831
0
LINE
8
dots(not in use)
10
41.959666
20
72.649831
11
41.755586
21
72.347139
0
LINE
8
dots(not in use)
10
41.755586
20
72.347139
11
41.452894
21
72.143058
0
LINE
8
dots(not in use)
10
41.452894
20
72.143058
11
41.082225
21
72.068223
0
LINE
8
dots(not in use)
10
41.082225
20
72.068223
11
40.711556
21
72.143058
0
LINE
8
dots(not in use)
10
40.711556
20
72.143058
11
40.408864
21
72.347139
0
LINE
8
dots(not in use)
10
40.408864
20
72.347139
11
40.204784
21
72.649831
0
LINE
8
dots(not in use)
10
40.204784
20
72.649831
11
40.129950
21
73.020500
0
LINE
8
dots(not in use)
10
40.129950
20
73.020500
11
40.204784
21
73.391169
0
LINE
8
dots(not in use)
10
40.204784
20
73.391169
11
40.408864
21
73.693861
0
LINE
8
dots(not in use)
10
40.408864
20
73.693861
11
40.711556
21
73.897942
0
LINE
8
dots(not in use)
10
40.711556
20
73.897942
11
41.082225
21
73.972777
0
LINE
8
dots(not in use)
10
41.082225
20
73.972777
11
41.452894
21
73.897942
0
LINE
8
dots(not in use)
10
41.452894
20
73.897942
11
41.755586
21
73.693861
0
LINE
8
dots(not in use)
10
41.755586
20
73.693861
11
41.959666
21
73.391169
0
LINE
8
dots(not in use)
10
41.959666
20
73.391169
11
42.034500
21
73.020500
0
LINE
8
dots(not in use)
10
42.034500
20
73.020500
11
42.034500
21
73.020500
0
LINE
8
dots(not in use)
10
42.995200
20
31.125100
11
42.920366
21
30.754431
0
LINE
8
dots(not in use)
10
42.920366
20
30.754431
11
42.716286
21
30.451739
0
LINE
8
dots(not in use)
10
42.716286
20
30.451739
11
42.413594
21
30.247658
0
LINE
8
dots(not in use)
10
42.413594
20
30.247658
11
42.042925
21
30.172823
0
LINE
8
dots(not in use)
10
42.042925
20
30.172823
11
41.369564
21
30.451739
0
LINE
8
dots(not in use)
10
41.369564
20
30.451739
11
41.090649
21
31.125100
0
LINE
8
dots(not in use)
10
41.090649
20
31.125100
11
41.369562
21
31.798464
0
LINE
8
dots(not in use)
10
41.369562
20
31.798464
11
42.042925
21
32.077381
0
LINE
8
dots(not in use)
10
42.042925
20
32.077381
11
42.716287
21
31.798464
0
LINE
8
dots(not in use)
10
42.716287
20
31.798464
11
42.995200
21
31.125100
0
LINE
8
dots(not in use)
10
42.995200
20
31.125100
11
42.995200
21
31.125100
0
LINE
8
dots(not in use)
10
35.353700
20
33.752700
11
35.278864
21
33.382033
0
LINE
8
dots(not in use)
10
35.278864
20
33.382033
11
35.074784
21
33.079342
0
LINE
8
dots(not in use)
10
35.074784
20
33.079342
11
34.772093
21
32.875262
0
LINE
8
dots(not in use)
10
34.772093
20
32.875262
11
34.401425
21
32.800428
0
LINE
8
dots(not in use)
10
34.401425
20
32.800428
11
34.030757
21
32.875262
0
LINE
8
dots(not in use)
10
34.030757
20
32.875262
11
33.728066
21
33.079342
0
LINE
8
dots(not in use)
10
33.728066
20
33.079342
11
33.523985
21
33.382032
0
LINE
8
dots(not in use)
10
33.523985
20
33.382032
11
33.449149
21
33.752700
0
LINE
8
dots(not in use)
10
33.449149
20
33.752700
11
33.728064
21
34.426061
0
LINE
8
dots(not in use)
10
33.728064
20
34.426061
11
34.401425
21
34.704977
0
LINE
8
dots(not in use)
10
34.401425
20
34.704977
11
34.772094
21
34.630142
0
LINE
8
dots(not in use)
10
34.772094
20
34.630142
11
35.074786
21
34.426061
0
LINE
8
dots(not in use)
10
35.074786
20
34.426061
11
35.278866
21
34.123369
0
LINE
8
dots(not in use)
10
35.278866
20
34.123369
11
35.353700
21
33.752700
0
LINE
8
dots(not in use)
10
35.353700
20
33.752700
11
35.353700
21
33.752700
0
LINE
8
dots(not in use)
10
38.067300
20
33.817400
11
37.992464
21
33.446733
0
LINE
8
dots(not in use)
10
37.992464
20
33.446733
11
37.788384
21
33.144042
0
LINE
8
dots(not in use)
10
37.788384
20
33.144042
11
37.485693
21
32.939962
0
LINE
8
dots(not in use)
10
37.485693
20
32.939962
11
37.115025
21
32.865128
0
LINE
8
dots(not in use)
10
37.115025
20
32.865128
11
36.744357
21
32.939962
0
LINE
8
dots(not in use)
10
36.744357
20
32.939962
11
36.441666
21
33.144042
0
LINE
8
dots(not in use)
10
36.441666
20
33.144042
11
36.237586
21
33.446733
0
LINE
8
dots(not in use)
10
36.237586
20
33.446733
11
36.162750
21
33.817400
0
LINE
8
dots(not in use)
10
36.162750
20
33.817400
11
36.237584
21
34.188069
0
LINE
8
dots(not in use)
10
36.237584
20
34.188069
11
36.441664
21
34.490761
0
LINE
8
dots(not in use)
10
36.441664
20
34.490761
11
36.744356
21
34.694842
0
LINE
8
dots(not in use)
10
36.744356
20
34.694842
11
37.115025
21
34.769677
0
LINE
8
dots(not in use)
10
37.115025
20
34.769677
11
37.485694
21
34.694842
0
LINE
8
dots(not in use)
10
37.485694
20
34.694842
11
37.788386
21
34.490761
0
LINE
8
dots(not in use)
10
37.788386
20
34.490761
11
37.992466
21
34.188069
0
LINE
8
dots(not in use)
10
37.992466
20
34.188069
11
38.067300
21
33.817400
0
LINE
8
dots(not in use)
10
38.067300
20
33.817400
11
38.067300
21
33.817400
0
LINE
8
dots(not in use)
10
42.821400
20
33.798300
11
42.542485
21
33.124939
0
LINE
8
dots(not in use)
10
42.542485
20
33.124939
11
41.869124
21
32.846023
0
LINE
8
dots(not in use)
10
41.869124
20
32.846023
11
41.498455
21
32.920858
0
LINE
8
dots(not in use)
10
41.498455
20
32.920858
11
41.195763
21
33.124939
0
LINE
8
dots(not in use)
10
41.195763
20
33.124939
11
40.991683
21
33.427631
0
LINE
8
dots(not in use)
10
40.991683
20
33.427631
11
40.916849
21
33.798300
0
LINE
8
dots(not in use)
10
40.916849
20
33.798300
11
40.991685
21
34.168967
0
LINE
8
dots(not in use)
10
40.991685
20
34.168967
11
41.195765
21
34.471658
0
LINE
8
dots(not in use)
10
41.195765
20
34.471658
11
41.498456
21
34.675738
0
LINE
8
dots(not in use)
10
41.498456
20
34.675738
11
41.869124
21
34.750572
0
LINE
8
dots(not in use)
10
41.869124
20
34.750572
11
42.239792
21
34.675738
0
LINE
8
dots(not in use)
10
42.239792
20
34.675738
11
42.542483
21
34.471658
0
LINE
8
dots(not in use)
10
42.542483
20
34.471658
11
42.746564
21
34.168968
0
LINE
8
dots(not in use)
10
42.746564
20
34.168968
11
42.821400
21
33.798300
0
LINE
8
dots(not in use)
10
42.821400
20
33.798300
11
42.821400
21
33.798300
 0 
ENDSEC
 0 
EOF